<svg width="202" height="40" viewBox="0 0 202 40" fill="none" xmlns="http://www.w3.org/2000/svg">
<path d="M15 0C6.7157 0 0 6.7157 0 15C0 26.25 15 40 15 40C15 40 30 26.25 30 15C30 6.7157 23.2843 0 15 0ZM15 21C11.6863 21 9 18.3137 9 15C9 11.6863 11.6863 9 15 9C18.3137 9 21 11.6863 21 15C21 18.3137 18.3137 21 15 21Z" fill="#FFC107"/>
<path d="M18 27H12C9.2386 27 7 29.2386 7 32V34C7 35.1046 7.8954 36 9 36H21C22.1046 36 23 35.1046 23 34V32C23 29.2386 20.7614 27 18 27Z" fill="#FFC107"/>
<path d="M10 35C11.1046 35 12 34.1046 12 33C12 31.8954 11.1046 31 10 31C8.89543 31 8 31.8954 8 33C8 34.1046 8.89543 35 10 35Z" fill="#1C1917"/>
<path d="M20 35C21.1046 35 22 34.1046 22 33C22 31.8954 21.1046 31 20 31C18.8954 31 18 31.8954 18 33C18 34.1046 18.8954 35 20 35Z" fill="#1C1917"/>
<path d="M52.3036 35L43.7717 5.18182H50.6584L55.5941 25.9002H55.8416L61.2869 5.18182H67.1836L72.6143 25.9439H72.8764L77.8121 5.18182H84.6989L76.1669 35H70.0227L64.3445 15.5046H64.1115L58.4478 35H52.3036ZM90.2097 35H83.454L93.7477 5.18182H101.872L112.151 35H105.395L97.9263 11.9957H97.6934L90.2097 35ZM89.7875 23.2795H105.745V28.2006H89.7875V23.2795ZM110.95 5.18182H118.011L124.811 18.0234H125.102L131.901 5.18182H138.963L128.087 24.4588V35H121.826V24.4588L110.95 5.18182ZM160.376 14.8203C160.172 14.1117 159.886 13.4857 159.517 12.9421C159.148 12.3888 158.697 11.9229 158.163 11.5444C157.639 11.1561 157.037 10.8601 156.358 10.6562C155.688 10.4524 154.946 10.3505 154.13 10.3505C152.606 10.3505 151.267 10.729 150.112 11.4861C148.966 12.2433 148.073 13.3449 147.433 14.7912C146.792 16.2277 146.472 17.9846 146.472 20.0618C146.472 22.139 146.787 23.9055 147.418 25.3615C148.049 26.8175 148.942 27.9289 150.097 28.6957C151.252 29.4528 152.616 29.8313 154.188 29.8313C155.615 29.8313 156.833 29.579 157.843 29.0742C158.862 28.5598 159.639 27.8366 160.172 26.9048C160.716 25.973 160.988 24.8713 160.988 23.5998L162.269 23.7891H154.582V19.0426H167.059V22.799C167.059 25.4197 166.506 27.6716 165.399 29.5547C164.293 31.428 162.769 32.8743 160.828 33.8935C158.886 34.9029 156.664 35.4077 154.159 35.4077C151.364 35.4077 148.908 34.7913 146.792 33.5586C144.676 32.3162 143.026 30.5545 141.842 28.2734C140.667 25.9827 140.08 23.2649 140.08 20.12C140.08 17.7031 140.43 15.5483 141.128 13.6555C141.837 11.7531 142.827 10.1418 144.099 8.82173C145.37 7.50166 146.85 6.49704 148.539 5.80788C150.228 5.11873 152.058 4.77415 154.028 4.77415C155.717 4.77415 157.29 5.02166 158.746 5.51669C160.202 6.00201 161.493 6.69117 162.619 7.58416C163.754 8.47715 164.681 9.54001 165.399 10.7727C166.118 11.9957 166.579 13.3449 166.783 14.8203H160.376ZM199.196 20.0909C199.196 23.3426 198.58 26.1089 197.347 28.3899C196.124 30.6709 194.454 32.4132 192.338 33.6168C190.232 34.8107 187.864 35.4077 185.233 35.4077C182.583 35.4077 180.205 34.8059 178.099 33.6023C175.993 32.3987 174.328 30.6564 173.105 28.3754C171.882 26.0943 171.271 23.3329 171.271 20.0909C171.271 16.8393 171.882 14.0729 173.105 11.7919C174.328 9.51089 175.993 7.77344 178.099 6.57955C180.205 5.37595 182.583 4.77415 185.233 4.77415C187.864 4.77415 190.232 5.37595 192.338 6.57955C194.454 7.77344 196.124 9.51089 197.347 11.7919C198.58 14.0729 199.196 16.8393 199.196 20.0909ZM192.804 20.0909C192.804 17.9846 192.489 16.2083 191.858 14.7621C191.237 13.3158 190.358 12.219 189.223 11.4716C188.087 10.7242 186.757 10.3505 185.233 10.3505C183.709 10.3505 182.38 10.7242 181.244 11.4716C180.108 12.219 179.225 13.3158 178.594 14.7621C177.973 16.2083 177.662 17.9846 177.662 20.0909C177.662 22.1972 177.973 23.9735 178.594 25.4197C179.225 26.866 180.108 27.9628 181.244 28.7102C182.38 29.4576 183.709 29.8313 185.233 29.8313C186.757 29.8313 188.087 29.4576 189.223 28.7102C190.358 27.9628 191.237 26.866 191.858 25.4197C192.489 23.9735 192.804 22.1972 192.804 20.0909Z" fill="#FFC107"/>
</svg>
